

General.

Complete name                    : Dead Season[2012]ENG[BRRip]Xvid-{RedDragon}.mkv
Format                           : Matroska
File size                        : 487 MiB
Duration                         : 1h 25mn
Overall bit rate                 : 799 Kbps
Writing application              : mkvmerge v4.4.0 ('Die Wiederkehr') built on Oct 31 2010 21:52:48
Writing library                  : libebml v1.0.0 + libmatroska v1.0.0
IMDB LINK                        : http://www.imdb.com/title/tt1650042/
IMDB Rating                      : 5/10


Video.

ID                               : 1
Format                           : AVC
Format/Info                      : Advanced Video Codec
Format profile                   : High@L4.0
Format settings, CABAC           : Yes
Format settings, ReFrames        : 3 frames
Format settings, GOP             : M=4, N=48
Muxing mode                      : Container profile=Unknown@4.0
Codec ID                         : V_MPEG4/ISO/AVC
Duration                         : 1h 25mn
Bit rate                         : 656 Kbps
Width                            : 656 pixels
Height                           : 352 pixels
Display aspect ratio             : 1.864
Frame rate                       : 25.000 fps
Color space                      : YUV
Chroma subsampling               : 4:2:0
Bit depth                        : 8 bits
Scan type                        : Progressive
Bits/(Pixel*Frame)               : 0.114
Stream size                      : 399 MiB (82%)
Writing library                  : x264 core 112 r1867 22bfd31


Audio.

ID                               : 2
Format                           : MPEG Audio
Format version                   : Version 1
Format profile                   : Layer 3
Codec ID                         : A_MPEG/L3
Codec ID/Hint                    : MP3
Duration                         : 1h 25mn
Bit rate mode                    : Constant
Bit rate                         : 128 Kbps
Channel(s)                       : 2 channels
Sampling rate                    : 48.0 KHz
Stream size                      : 78.0 MiB (16%)


Text.

ID                               : 3
Format                           : UTF-8
Codec ID                         : S_TEXT/UTF8
Codec ID/Info                    : UTF-8 Plain Text
